:SAMPLES-PER-SECOND 30
:FULLY-SPECIFIED
:DEGREES
117
root  -5.06813 40.5695 -1.77348 -0.422928 -38.0796 3.07294
RightUpLeg  5.53379 -4.7375 1.68661
RightLeg  -5.95372 -67.3375 8.06586
RightFoot  -4.68699 -0.283266 4.32138
RightToes  -3.1126e-008 1.75238e-005 3.56266e-009
Spine  8.26544 8.29183 0.789519
Spine1  -12.2014 8.55919 -4.4456
HEad  -0.866924 -2.97097 1.33889
LeftShoulder1  0.106851 2.99881 -14.2453
LeftArm  -24.8021 -31.8346 -37.4547
LeftForeArm  59.5889 -76.5828 -43.7981
LeftHand  -0.532179 -4.8271 6.34294
RightShoulder  1.12295 0.980182 18.632
RightArm  -6.87126 -3.8977 26.8771
RightForeArm  98.2675 79.0188 107.164
RightHand  -0.105856 8.07816 -1.28678
LeftUpLeg  -8.02455 -3.75099 0.734245
LeftLeg  1.2054 -28.4504 1.74889
LeftFoot  2.39042 0.893187 -7.53362
LeftToes  4.78049e-008 1.46235e-008 1.34219e-009
118
root  -5.17517 40.5343 -1.78247 -0.411819 -35.4858 3.04559
RightUpLeg  5.58682 -4.7652 2.01621
RightLeg  -5.48898 -69.7317 7.679
RightFoot  -4.87465 -0.306907 4.84058
RightToes  -3.1126e-008 1.75238e-005 3.56266e-009
Spine  8.82619 9.02774 1.79119
Spine1  -12.66 9.40386 -6.07132
HEad  -0.596367 -3.60637 1.5568
LeftShoulder1  0.140398 2.83623 -13.9887
LeftArm  -24.8754 -31.4684 -37.5309
LeftForeArm  59.5251 -76.6214 -44.0557
LeftHand  -0.565398 -4.72629 6.77933
RightShoulder  1.08916 0.743007 19.2181
RightArm  -6.74381 -3.02841 28.8374
RightForeArm  100.252 78.9767 108.435
RightHand  -0.121187 8.30751 -1.40453
LeftUpLeg  -8.48308 -4.13418 0.507421
LeftLeg  1.79289 -30.4912 1.59358
LeftFoot  2.03506 0.9456 -8.15789
LeftToes  4.78049e-008 1.46235e-008 1.34219e-009
119
root  -5.25129 40.5053 -1.77337 -0.433533 -33.5876 3.09468
RightUpLeg  5.60422 -4.82879 2.179
RightLeg  -5.16278 -71.5455 7.40341
RightFoot  -5.02755 -0.317942 5.13809
RightToes  -3.1126e-008 1.75238e-005 3.56266e-009
Spine  8.85398 9.52415 1.82858
Spine1  -12.6093 9.92196 -6.37983
HEad  -0.559903 -2.97681 1.80759
LeftShoulder1  0.0046247 3.48068 -13.7965
LeftArm  -24.6037 -31.004 -38.028
LeftForeArm  61.0763 -76.927 -45.3328
LeftHand  -0.5634 -4.75417 6.73878
RightShoulder  1.41405 1.78286 20.4556
RightArm  -6.29621 -2.02828 28.956
RightForeArm  99.7245 79.0007 107.985
RightHand  -0.0893208 8.13171 -1.14268
LeftUpLeg  -8.83983 -4.44412 0.288381
LeftLeg  2.29099 -32.0291 1.35408
LeftFoot  1.81317 0.951199 -8.33434
LeftToes  4.78049e-008 1.46235e-008 1.34219e-009
120
root  -5.30095 40.4794 -1.7604 -0.404816 -32.1158 3.0576
RightUpLeg  5.68622 -5.10674 2.19419
RightLeg  -5.24345 -72.7105 7.78063
RightFoot  -5.30451 -0.308483 5.16149
RightToes  -3.1126e-008 1.75238e-005 3.56266e-009
Spine  8.85301 10.1659 1.85394
Spine1  -12.457 10.5596 -6.27431
HEad  -0.825095 -2.36367 1.43072
LeftShoulder1  0.0604152 3.22298 -14.3911
LeftArm  -24.5241 -30.8216 -37.3965
LeftForeArm  62.2148 -77.1615 -46.4204
LeftHand  -0.536742 -4.64414 6.50132
RightShoulder  1.50028 2.11947 20.3535
RightArm  -5.56778 -1.50541 29.5274
RightForeArm  99.0576 79.0493 107.227
RightHand  -0.116094 8.33933 -1.36217
LeftUpLeg  -9.20052 -4.71587 0.170136
LeftLeg  2.8676 -33.1969 1.06836
LeftFoot  1.61116 0.959971 -8.59719
LeftToes  4.78049e-008 1.46235e-008 1.34219e-009
121
root  -5.33758 40.461 -1.72417 -0.307495 -30.8493 3.13338
RightUpLeg  5.54009 -5.17672 2.2279
RightLeg  -4.72073 -73.9195 7.30479
RightFoot  -5.41524 -0.324799 5.55745
RightToes  -3.1126e-008 1.75238e-005 3.56266e-009
Spine  8.04354 10.7547 1.41466
Spine1  -11.3539 11.1625 -5.55748
HEad  -1.36158 -1.69306 0.977353
LeftShoulder1  0.13598 2.88403 -15.1015
LeftArm  -24.4329 -31.2795 -36.9791
LeftForeArm  61.961 -77.1923 -46.748
LeftHand  -0.563606 -4.46523 6.92227
RightShoulder  1.42922 1.9791 19.6978
RightArm  -5.43205 -1.20093 30.4645
RightForeArm  97.9394 79.1984 105.235
RightHand  -0.0964332 8.68595 -1.18069
LeftUpLeg  -9.52854 -4.978 -0.0424576
LeftLeg  3.16065 -34.2116 0.87439
LeftFoot  1.60135 0.958636 -8.52378
LeftToes  4.78049e-008 1.46235e-008 1.34219e-009
122
root  -5.34352 40.4552 -1.68699 -0.174271 -29.9899 3.14626
RightUpLeg  5.32128 -5.26682 2.21261
RightLeg  -3.70752 -74.688 6.40866
RightFoot  -5.47351 -0.339916 5.8983
RightToes  -3.1126e-008 1.75238e-005 3.56266e-009
Spine  8.23569 10.7396 1.90923
Spine1  -11.5906 11.2138 -6.47836
HEad  -1.68294 -1.3695 1.15934
LeftShoulder1  0.129875 2.90506 -14.7927
LeftArm  -24.4502 -31.3587 -36.9073
LeftForeArm  61.851 -77.2101 -46.9213
LeftHand  -0.553358 -4.66102 6.68212
RightShoulder  1.5492 2.34584 20.1466
RightArm  -4.94502 -1.19189 30.2276
RightForeArm  96.324 79.2281 104.115
RightHand  -0.0869756 8.49743 -1.10751
LeftUpLeg  -9.77216 -5.06489 -0.163763
LeftLeg  3.25853 -34.9838 0.772835
LeftFoot  1.64317 0.999116 -8.85563
LeftToes  4.78049e-008 1.46235e-008 1.34219e-009
123
root  -5.34415 40.4492 -1.64374 -0.116501 -29.1762 3.17392
RightUpLeg  5.25819 -5.34638 2.18264
RightLeg  -3.47084 -75.4383 6.21961
RightFoot  -5.51534 -0.335383 5.84797
RightToes  -3.1126e-008 1.75238e-005 3.56266e-009
Spine  8.21223 10.4036 1.99564
Spine1  -11.419 10.9116 -6.64349
HEad  -1.99305 -1.31996 1.11434
LeftShoulder1  0.109723 3.00501 -15.1136
LeftArm  -24.8838 -31.6068 -36.6531
LeftForeArm  61.5065 -77.1555 -46.689
LeftHand  -0.538092 -4.91235 6.36002
RightShoulder  1.64297 2.66786 20.2867
RightArm  -4.60549 -0.977123 30.3324
RightForeArm  94.743 79.3007 102.491
RightHand  -0.0523002 8.1079 -0.826376
LeftUpLeg  -9.92707 -4.90741 -0.237457
LeftLeg  3.31861 -36.0001 0.505372
LeftFoot  1.75464 1.03499 -9.09704
LeftToes  4.78049e-008 1.46235e-008 1.34219e-009
124
root  -5.33578 40.449 -1.60606 -0.0845032 -28.7492 3.27937
RightUpLeg  5.02818 -5.63367 1.93566
RightLeg  -1.6608 -75.5594 4.67075
RightFoot  -5.64339 -0.345836 6.17037
RightToes  -3.1126e-008 1.75238e-005 3.56266e-009
Spine  8.45921 10.1445 1.9499
Spine1  -11.6766 10.6618 -7.00197
HEad  -2.42485 -1.93516 1.2696
LeftShoulder1  0.125798 2.93237 -15.1154
LeftArm  -24.862 -31.7896 -36.9512
LeftForeArm  60.4866 -76.9472 -45.7055
LeftHand  -0.538474 -4.91216 6.36523
RightShoulder  1.70005 2.79678 20.6761
RightArm  -4.54207 -1.28635 30.2285
RightForeArm  94.9668 79.3075 102.53
RightHand  -0.0739033 8.47301 -1.00146
LeftUpLeg  -10.0263 -4.97694 -0.429176
LeftLeg  3.31712 -36.2978 0.453118
LeftFoot  1.93979 1.04522 -9.06701
LeftToes  4.78049e-008 1.46235e-008 1.34219e-009
125
root  -5.32174 40.4505 -1.56422 -0.030426 -28.4922 3.30518
RightUpLeg  4.91979 -5.71697 1.85413
RightLeg  -0.848676 -75.7527 3.91412
RightFoot  -5.6615 -0.356233 6.39293
RightToes  -3.1126e-008 1.75238e-005 3.56266e-009
Spine  8.30328 9.80864 1.78473
Spine1  -11.4244 10.3381 -6.88112
HEad  -2.90462 -1.26641 0.769057
LeftShoulder1  0.172697 2.72202 -15.2066
LeftArm  -25.1236 -31.8785 -37.265
LeftForeArm  59.3584 -76.7379 -44.8272
LeftHand  -0.529766 -4.61295 6.43723
RightShoulder  1.70229 2.81983 20.6072
RightArm  -4.68064 -1.13584 30.3344
RightForeArm  94.13 79.3485 101.592
RightHand  -0.0575215 8.32983 -0.867403
LeftUpLeg  -10.1011 -5.0478 -0.533341
LeftLeg  3.36061 -36.5226 0.398942
LeftFoot  2.02794 1.03662 -8.93146
LeftToes  4.78049e-008 1.46235e-008 1.34219e-009
126
root  -5.29574 40.4512 -1.51687 0.146133 -28.6094 3.35439
RightUpLeg  4.593 -5.77462 1.72168
RightLeg  0.427222 -75.548 2.69842
RightFoot  -5.67217 -0.364324 6.56482
RightToes  -3.1126e-008 1.75238e-005 3.56266e-009
Spine  8.38761 9.47336 1.73541
Spine1  -11.7441 9.98799 -7.09078
HEad  -3.42901 -1.52206 0.868449
LeftShoulder1  0.146718 2.829 -14.8513
LeftArm  -24.8082 -31.6178 -38.5418
LeftForeArm  58.3737 -76.5179 -43.8824
LeftHand  -0.543562 -4.50184 6.66387
RightShoulder  1.69587 2.80422 20.5676
RightArm  -4.84922 -0.752589 30.3939
RightForeArm  92.6939 79.3973 100.163
RightHand  -0.0626392 8.46547 -0.906926
LeftUpLeg  -10.2706 -4.98011 -0.54853
LeftLeg  3.34803 -36.5453 0.261863
LeftFoot  2.11382 1.03251 -8.84238
LeftToes  4.78049e-008 1.46235e-008 1.34219e-009
